<?xml version="1.0" encoding="UTF-8"?>
<svg version="1.1" xmlns="http://www.w3.org/2000/svg" width="202" height="233">
<path d="M0 0 C66.66 0 133.32 0 202 0 C202 76.89 202 153.78 202 233 C135.34 233 68.68 233 0 233 C0 156.11 0 79.22 0 0 Z " fill="#1902AD" transform="translate(0,0)"/>
<path d="M0 0 C33.66 0 67.32 0 102 0 C102 76.89 102 153.78 102 233 C35.34 233 -31.32 233 -100 233 C-100 213.53 -100 194.06 -100 174 C-92.05208739 177.9739563 -84.37044453 181.98762295 -76.75 186.5 C-74.64068487 187.73968521 -72.53130812 188.97926558 -70.421875 190.21875 C-69.35646484 190.84652344 -68.29105469 191.47429687 -67.19335938 192.12109375 C-62.13766539 195.09575896 -57.06851517 198.04725262 -52 201 C-45.90366864 204.55419515 -39.80886847 208.11094889 -33.71875 211.67578125 C-22.53442869 218.21857433 -11.32552729 224.70433924 0 231 C0 230.01 0 229.02 0 228 C1.0209375 227.44054687 2.041875 226.88109375 3.09375 226.3046875 C12.99802203 220.85246465 22.79711866 215.23743204 32.55322266 209.5246582 C41.04896092 204.55003073 49.56833958 199.61771604 58.1003418 194.70556641 C63.21272272 191.7621326 68.32300168 188.81538814 73.42242432 185.8495636 C75.80989553 184.46120023 78.1987632 183.0752493 80.58770752 181.68942261 C82.2725462 180.71070895 83.95539038 179.72856435 85.63818359 178.74633789 C86.66121582 178.15328857 87.68424805 177.56023926 88.73828125 176.94921875 C89.63587158 176.42674561 90.53346191 175.90427246 91.45825195 175.3659668 C93.92396993 174.0408595 96.39568383 173.01744335 99 172 C99.4788754 157.39670361 99.80551405 142.79642785 99.95596504 128.18591976 C100.02931623 121.3994521 100.15122494 114.6205113 100.38867188 107.83764648 C103.08415988 79.89128162 103.08415988 79.89128162 95.5581665 54.1579895 C90.03348842 48.37657133 82.65079259 45.88908484 75.09112549 43.87911987 C70.99105812 42.7130557 68.08285087 40.94515598 64.5390625 38.59765625 C63.54825684 38.0061377 62.55745117 37.41461914 61.53662109 36.80517578 C60.57578613 36.23009277 59.61495117 35.65500977 58.625 35.0625 C49.26204981 29.48566081 39.84557278 24.01625194 30.375 18.625 C14.23031743 9.43046241 14.23031743 9.43046241 6.75 5.0625 C6.04665527 4.65531738 5.34331055 4.24813477 4.61865234 3.82861328 C3.06169431 2.91477292 1.52747583 1.96230977 0 1 C0 0.67 0 0.34 0 0 Z " fill="#FDFDFD" transform="translate(100,0)"/>
<path d="M0 0 C14.27082346 -0.03080109 28.54164777 -0.05104756 42.8125 -0.0625 C43.87160835 -0.06335602 44.93071671 -0.06421204 46.02191925 -0.06509399 C75.14346378 -0.08587377 104.25716532 0.01651763 133.375 0.5 C134.45606207 0.51793673 134.45606207 0.51793673 135.55896378 0.53623581 C144.03955831 0.67805796 152.5198653 0.83290375 161 1 C161 7.93 161 14.86 161 22 C127.34 22 93.68 22 59 22 C59 51.04 59 80.08 59 110 C51.41 110 43.82 110 36 110 C35.80611597 47.44008598 35.80611597 47.44008598 37 21 C35.37203491 21.00785522 35.37203491 21.00785522 33.71118164 21.01586914 C29.69882018 21.03391836 25.68646233 21.04543171 21.67407227 21.05493164 C19.93480832 21.05997204 18.19554864 21.0668043 16.45629883 21.07543945 C13.96174063 21.08751792 11.46723827 21.09323108 8.97265625 21.09765625 C8.19036148 21.10281754 7.40806671 21.10797882 6.60206604 21.11329651 C4.73432886 21.11349226 2.86670796 21.06199694 1 21 C0 20 0 20 -0.11352539 18.05053711 C-0.10567017 16.8015564 -0.10567017 16.8015564 -0.09765625 15.52734375 C-0.09443359 14.62822266 -0.09121094 13.72910156 -0.08789062 12.80273438 C-0.07951172 11.85720703 -0.07113281 10.91167969 -0.0625 9.9375 C-0.05798828 8.98810547 -0.05347656 8.03871094 -0.04882812 7.06054688 C-0.0370011 4.70696935 -0.02052025 2.35351523 0 0 Z " fill="#F8F7FC" transform="translate(19,64)"/>
<path d="M0 0 C33.66 0 67.32 0 102 0 C102.16121214 43.22276514 102.16121214 43.22276514 102.1953125 61.30078125 C102.21906998 73.79547676 102.24703616 86.29006458 102.30175781 98.78466797 C102.34158801 107.88342771 102.36742388 116.98210028 102.37635398 126.08094478 C102.3815752 130.90013462 102.3938724 135.71907509 102.42292023 140.53818512 C102.45002904 145.07225635 102.45845421 149.60597498 102.45243073 154.14011955 C102.453533 155.80584312 102.46151395 157.47157823 102.4768219 159.13723183 C102.4966797 161.40900118 102.49195571 163.67943361 102.48101807 165.95123291 C102.48470524 167.22330723 102.48839241 168.49538155 102.49219131 169.80600357 C101.90996715 173.58425373 100.9665372 174.68116438 98 177 C96.29147918 178.11742281 94.54214106 179.17387051 92.765625 180.1796875 C91.72921875 180.77136719 90.6928125 181.36304688 89.625 181.97265625 C87.954375 182.91431641 87.954375 182.91431641 86.25 183.875 C85.07769601 184.54221557 83.90582746 185.21019675 82.734375 185.87890625 C80.93016193 186.90875122 79.12572035 187.93816511 77.31994629 188.965271 C71.520081 192.26492461 65.757853 195.62763278 60 199 C50.49020238 204.55861585 40.96133425 210.08349182 31.40991211 215.5703125 C26.33309104 218.48831826 21.26981798 221.42367723 16.2421875 224.42578125 C15.36216064 224.94760986 14.48213379 225.46943848 13.57543945 226.00708008 C11.94393356 226.97634643 10.31714353 227.95361166 8.69604492 228.94018555 C6.84113072 230.03770963 4.92476135 231.0301755 3 232 C2.01 231.67 1.02 231.34 0 231 C0 230.01 0 229.02 0 228 C1.0209375 227.44054687 2.041875 226.88109375 3.09375 226.3046875 C12.99802203 220.85246465 22.79711866 215.23743204 32.55322266 209.5246582 C41.04896092 204.55003073 49.56833958 199.61771604 58.1003418 194.70556641 C63.21272272 191.7621326 68.32300168 188.81538814 73.42242432 185.8495636 C75.80989553 184.46120023 78.1987632 183.0752493 80.58770752 181.68942261 C82.2725462 180.71070895 83.95539038 179.72856435 85.63818359 178.74633789 C86.66121582 178.15328857 87.68424805 177.56023926 88.73828125 176.94921875 C89.63587158 176.42674561 90.53346191 175.90427246 91.45825195 175.3659668 C93.92396993 174.0408595 96.39568383 173.01744335 99 172 C99.4788754 157.39670361 99.80551405 142.79642785 99.95596504 128.18591976 C100.02931623 121.3994521 100.15122494 114.6205113 100.38867188 107.83764648 C103.08415988 79.89128162 103.08415988 79.89128162 95.5581665 54.1579895 C90.03348842 48.37657133 82.65079259 45.88908484 75.09112549 43.87911987 C70.99105812 42.7130557 68.08285087 40.94515598 64.5390625 38.59765625 C63.54825684 38.0061377 62.55745117 37.41461914 61.53662109 36.80517578 C60.57578613 36.23009277 59.61495117 35.65500977 58.625 35.0625 C49.26204981 29.48566081 39.84557278 24.01625194 30.375 18.625 C14.23031743 9.43046241 14.23031743 9.43046241 6.75 5.0625 C6.04665527 4.65531738 5.34331055 4.24813477 4.61865234 3.82861328 C3.06169431 2.91477292 1.52747583 1.96230977 0 1 C0 0.67 0 0.34 0 0 Z " fill="#FCFBFD" transform="translate(100,0)"/>
<path d="M0 0 C25.74 0 51.48 0 78 0 C78 7.59 78 15.18 78 23 C59.85 23 41.7 23 23 23 C23.03961062 41.05555682 23.03961062 41.05555682 23.09008789 59.11108398 C23.09300682 61.36442009 23.09555543 63.61775673 23.09765625 65.87109375 C23.10277222 67.05352661 23.10788818 68.23595947 23.11315918 69.45422363 C23.11328003 70.57075317 23.11340088 71.68728271 23.11352539 72.83764648 C23.115746 73.81249496 23.11796661 74.78734344 23.12025452 75.79173279 C23 78 23 78 22 79 C14.74 79 7.48 79 0 79 C0 52.93 0 26.86 0 0 Z " fill="#FEFEFE" transform="translate(102,95)"/>
<path d="M0 0 C32.67 0 65.34 0 99 0 C95.37248804 2.90200957 92.31133707 5.09569933 88.3359375 7.328125 C87.22798828 7.95460938 86.12003906 8.58109375 84.97851562 9.2265625 C84.39239502 9.5555957 83.80627441 9.88462891 83.20239258 10.22363281 C80.04309789 11.99807167 76.8925321 13.7878572 73.7421875 15.578125 C73.09469543 15.94587036 72.44720337 16.31361572 71.78009033 16.69250488 C65.30412784 20.3796082 58.8992393 24.18126695 52.5 28 C43.0494306 33.63080766 33.55264895 39.16963489 24 44.625 C22.86111328 45.27597656 21.72222656 45.92695312 20.54882812 46.59765625 C13.73724747 50.4773132 6.88493763 54.24457947 0 58 C0 38.86 0 19.72 0 0 Z " fill="#FDFDFE" transform="translate(0,0)"/>
<path d="M0 0 C0.495 1.485 0.495 1.485 1 3 C-11.40313778 10.55240568 -23.98458472 17.78990094 -36.57275391 25.02832031 C-42.0515579 28.18025229 -47.52563279 31.34037053 -53 34.5 C-59.13707771 38.04126983 -65.27437764 41.58215112 -71.4133606 45.12011719 C-73.80426597 46.49806938 -76.19498672 47.87634172 -78.58569336 49.25463867 C-80.26983963 50.22540982 -81.95425231 51.19571874 -83.63867188 52.16601562 C-84.66154297 52.75576172 -85.68441406 53.34550781 -86.73828125 53.953125 C-87.63587158 54.47036133 -88.53346191 54.98759766 -89.45825195 55.52050781 C-91.21799642 56.54481398 -92.94481833 57.62702612 -94.64135742 58.75292969 C-95.41970947 59.16446289 -96.19806152 59.57599609 -97 60 C-97.99 59.67 -98.98 59.34 -100 59 C-100 58.01 -100 57.02 -100 56 C-98.9790625 55.44054687 -97.958125 54.88109375 -96.90625 54.3046875 C-87.00197797 48.85246465 -77.20288134 43.23743204 -67.44677734 37.5246582 C-60.02161167 33.17689795 -52.57999763 28.85890478 -45.125 24.5625 C-44.0620874 23.94971191 -42.9991748 23.33692383 -41.90405273 22.70556641 C-36.77906964 19.75176792 -31.65287525 16.80007788 -26.52600098 13.8495636 C-24.11782525 12.46340262 -21.71009301 11.07647251 -19.3024292 9.68942261 C-17.59741766 8.70760702 -15.8917333 7.72696016 -14.18603516 6.74633789 C-13.15655762 6.15328857 -12.12708008 5.56023926 -11.06640625 4.94921875 C-10.15834229 4.42674561 -9.25027832 3.90427246 -8.31469727 3.3659668 C-2.61090259 0 -2.61090259 0 0 0 Z " fill="#E96F31" transform="translate(200,172)"/>
<path d="M0 0 C25.74 0 51.48 0 78 0 C78 7.59 78 15.18 78 23 C59.85 23 41.7 23 23 23 C23.03961062 41.05555682 23.03961062 41.05555682 23.09008789 59.11108398 C23.09300682 61.36442009 23.09555543 63.61775673 23.09765625 65.87109375 C23.10277222 67.05352661 23.10788818 68.23595947 23.11315918 69.45422363 C23.11328003 70.57075317 23.11340088 71.68728271 23.11352539 72.83764648 C23.115746 73.81249496 23.11796661 74.78734344 23.12025452 75.79173279 C23 78 23 78 22 79 C14.74 79 7.48 79 0 79 C0 52.93 0 26.86 0 0 Z M1 1 C1 26.08 1 51.16 1 77 C7.6 77 14.2 77 21 77 C21 59.18 21 41.36 21 23 C39.48 22.67 57.96 22.34 77 22 C77 15.07 77 8.14 77 1 C51.92 1 26.84 1 1 1 Z " fill="#D3CFEF" transform="translate(102,95)"/>
<path d="M0 0 C0.66 0.33 1.32 0.66 2 1 C1.2884375 1.6496875 1.2884375 1.6496875 0.5625 2.3125 C-1.23686957 4.02309613 -1.23686957 4.02309613 -2 7 C-3.9609375 8.421875 -3.9609375 8.421875 -6.375 9.75 C-7.16648437 10.19859375 -7.95796875 10.6471875 -8.7734375 11.109375 C-11 12 -11 12 -14 11 C-14 10.01 -14 9.02 -14 8 C-11.7136988 6.63597957 -9.42178251 5.28365726 -7.125 3.9375 C-6.47402344 3.54755859 -5.82304688 3.15761719 -5.15234375 2.75585938 C-3.46934275 1.77555467 -1.73703801 0.88101568 0 0 Z " fill="#E46E35" transform="translate(114,220)"/>
<path d="M0 0 C0.33 1.32 0.66 2.64 1 4 C-2.08559304 6.26881841 -3.42209376 7.05451946 -7.3125 6.6875 C-8.199375 6.460625 -9.08625 6.23375 -10 6 C-7.35570758 3.077361 -4.105808 0 0 0 Z " fill="#E36C35" transform="translate(147,202)"/>
<path d="M0 0 C0.33 0.99 0.66 1.98 1 3 C-4.41538462 7.06153846 -4.41538462 7.06153846 -7.375 6.75 C-7.91125 6.5025 -8.4475 6.255 -9 6 C-8 3 -8 3 -5.625 1.3125 C-3 0 -3 0 0 0 Z " fill="#ED7331" transform="translate(200,172)"/>
<path d="M0 0 C2.97 0.495 2.97 0.495 6 1 C2.80009492 3.74277578 -0.00499382 5.6302836 -4 7 C-2.79618552 4.50638429 -1.54571278 2.31856917 0 0 Z " fill="#F7782C" transform="translate(135,208)"/>
<path d="M0 0 C2.97 0.495 2.97 0.495 6 1 C2.80009492 3.74277578 -0.00499382 5.6302836 -4 7 C-2.79618552 4.50638429 -1.54571278 2.31856917 0 0 Z " fill="#F7782C" transform="translate(180,182)"/>
<path d="M0 0 C0.33 1.32 0.66 2.64 1 4 C-0.65 4.66 -2.3 5.32 -4 6 C-4.33 4.68 -4.66 3.36 -5 2 C-2 0 -2 0 0 0 Z " fill="#E36D37" transform="translate(159,195)"/>
</svg>
