<?xml version="1.0" standalone="no"?>
<!DOCTYPE svg PUBLIC "-//W3C//DTD SVG 20010904//EN"
 "http://www.w3.org/TR/2001/REC-SVG-20010904/DTD/svg10.dtd">
<svg version="1.0" xmlns="http://www.w3.org/2000/svg"
 width="202.000000pt" height="233.000000pt" viewBox="0 0 202.000000 233.000000"
 preserveAspectRatio="xMidYMid meet">

<g transform="translate(0.000000,233.000000) scale(0.100000,-0.100000)"
fill="#000000" stroke="none">
<path d="M498 2038 l-498 -290 0 -577 0 -577 487 -283 c267 -156 495 -286 505
-289 10 -2 18 0 18 6 0 6 221 138 490 294 l490 283 -2 574 -3 573 -480 280
c-264 154 -487 283 -495 288 -10 5 -166 -80 -512 -282z m775 -355 l527 -6 0
-104 0 -103 -510 0 -510 0 0 -434 c0 -386 -2 -435 -16 -440 -21 -8 -178 -8
-199 0 -15 6 -15 44 -9 445 l7 439 -184 2 -184 3 -3 103 -3 102 279 0 c153 0
516 -3 805 -7z m527 -418 l0 -115 -275 0 -275 0 0 -275 0 -274 -32 -6 c-18 -3
-69 -5 -113 -3 l-80 3 -3 393 -2 392 390 0 390 0 0 -115z"/>
</g>
</svg>
